{
  "accessors": [
    {
      "bufferView": 2,
      "componentType": 5126,
      "count": 278,
      "max": [
        94.52021789550781,
        163.37518310546875,
        55.27412796020508
      ],
      "min": [
        9.866104125976563,
        10.646297454833984,
        12.350872039794922
      ],
      "type": "VEC3"
    },
    {
      "bufferView": 2,
      "byteOffset": 3336,
      "componentType": 5126,
      "count": 278,
      "max": [
        1.0,
        0.9998783469200134,
        0.9998784065246582
      ],
      "min": [
        -1.0,
        -1.0,
        -0.9987351894378662
      ],
      "type": "VEC3"
    },
    {
      "bufferView": 0,
      "componentType": 5125,
      "count": 1302,
      "type": "SCALAR"
    },
    {
      "bufferView": 2,
      "byteOffset": 6672,
      "componentType": 5126,
      "count": 334,
      "max": [
        62.74456787109375,
        162.21395874023438,
        38.9015007019043
      ],
      "min": [
        41.471405029296875,
        152.84304809570313,
        25.656980514526367
      ],
      "type": "VEC3"
    },
    {
      "bufferView": 2,
      "byteOffset": 10680,
      "componentType": 5126,
      "count": 334,
      "max": [
        1.0,
        1.0,
        1.0
      ],
      "min": [
        -1.0,
        -1.0,
        -1.0
      ],
      "type": "VEC3"
    },
    {
      "bufferView": 1,
      "componentType": 5126,
      "count": 334,
      "max": [
        0.991346001625061,
        -0.011118000373244286
      ],
      "min": [
        0.006053000222891569,
        -0.972940981388092
      ],
      "type": "VEC2"
    },
    {
      "bufferView": 0,
      "byteOffset": 5208,
      "componentType": 5125,
      "count": 846,
      "type": "SCALAR"
    },
    {
      "bufferView": 2,
      "byteOffset": 14688,
      "componentType": 5126,
      "count": 3732,
      "max": [
        104.38632202148438,
        177.32159423828125,
        99.24040985107422
      ],
      "min": [
        0.0,
        0.0,
        0.0
      ],
      "type": "VEC3"
    },
    {
      "bufferView": 2,
      "byteOffset": 59472,
      "componentType": 5126,
      "count": 3732,
      "max": [
        1.0,
        1.0,
        1.0
      ],
      "min": [
        -1.0,
        -1.0,
        -1.0
      ],
      "type": "VEC3"
    },
    {
      "bufferView": 1,
      "byteOffset": 2672,
      "componentType": 5126,
      "count": 3732,
      "max": [
        0.9997749924659729,
        -0.001348000019788742
      ],
      "min": [
        9.000000136438757e-05,
        -0.9991599917411804
      ],
      "type": "VEC2"
    },
    {
      "bufferView": 0,
      "byteOffset": 8592,
      "componentType": 5125,
      "count": 8667,
      "type": "SCALAR"
    },
    {
      "bufferView": 2,
      "byteOffset": 104256,
      "componentType": 5126,
      "count": 3307,
      "max": [
        102.3237533569336,
        177.32159423828125,
        99.24040985107422
      ],
      "min": [
        0.0,
        0.0,
        0.0
      ],
      "type": "VEC3"
    },
    {
      "bufferView": 2,
      "byteOffset": 143940,
      "componentType": 5126,
      "count": 3307,
      "max": [
        1.0,
        1.0,
        1.0
      ],
      "min": [
        -1.0,
        -1.0,
        -1.0
      ],
      "type": "VEC3"
    },
    {
      "bufferView": 1,
      "byteOffset": 32528,
      "componentType": 5126,
      "count": 3307,
      "max": [
        1.0000970363616943,
        -0.005456000100821257
      ],
      "min": [
        0.0001289999927394092,
        -0.9993590116500854
      ],
      "type": "VEC2"
    },
    {
      "bufferView": 0,
      "byteOffset": 43260,
      "componentType": 5125,
      "count": 7959,
      "type": "SCALAR"
    }
  ],
  "asset": {
    "extras": {
      "author": "pineapples73 (https://sketchfab.com/savesomeenergy)",
      "license": "CC-BY-4.0 (http://creativecommons.org/licenses/by/4.0/)",
      "source": "https://sketchfab.com/3d-models/jeepbuggy-half-life-2-734af333c2214f4084a5b569cbd322ed",
      "title": "Jeep/Buggy - Half Life 2"
    },
    "generator": "Sketchfab-12.65.0",
    "version": "2.0"
  },
  "bufferViews": [
    {
      "buffer": 0,
      "byteLength": 75096,
      "name": "floatBufferViews",
      "target": 34963
    },
    {
      "buffer": 0,
      "byteLength": 58984,
      "byteOffset": 75096,
      "byteStride": 8,
      "name": "floatBufferViews",
      "target": 34962
    },
    {
      "buffer": 0,
      "byteLength": 183624,
      "byteOffset": 134080,
      "byteStride": 12,
      "name": "floatBufferViews",
      "target": 34962
    }
  ],
  "buffers": [
    {
      "byteLength": 317704,
      "uri": "scene.bin"
    }
  ],
  "images": [
    {
      "uri": "textures/ammo_box.tga_baseColor.png"
    },
    {
      "uri": "textures/buggy001.tga_baseColor.png"
    }
  ],
  "materials": [
    {
      "doubleSided": true,
      "name": "material_0",
      "pbrMetallicRoughness": {
        "metallicFactor": 0.0,
        "roughnessFactor": 0.6
      }
    },
    {
      "doubleSided": true,
      "name": "ammo_box.tga",
      "pbrMetallicRoughness": {
        "baseColorTexture": {
          "index": 0
        },
        "metallicFactor": 0.0,
        "roughnessFactor": 0.6
      }
    },
    {
      "doubleSided": true,
      "name": "buggy001.tga",
      "pbrMetallicRoughness": {
        "baseColorTexture": {
          "index": 1
        },
        "metallicFactor": 0.0,
        "roughnessFactor": 0.6
      }
    }
  ],
  "meshes": [
    {
      "name": "Object_0",
      "primitives": [
        {
          "attributes": {
            "NORMAL": 1,
            "POSITION": 0
          },
          "indices": 2,
          "material": 0,
          "mode": 4
        }
      ]
    },
    {
      "name": "Object_1",
      "primitives": [
        {
          "attributes": {
            "NORMAL": 4,
            "POSITION": 3,
            "TEXCOORD_0": 5
          },
          "indices": 6,
          "material": 1,
          "mode": 4
        }
      ]
    },
    {
      "name": "Object_2",
      "primitives": [
        {
          "attributes": {
            "NORMAL": 8,
            "POSITION": 7,
            "TEXCOORD_0": 9
          },
          "indices": 10,
          "material": 2,
          "mode": 4
        }
      ]
    },
    {
      "name": "Object_3",
      "primitives": [
        {
          "attributes": {
            "NORMAL": 12,
            "POSITION": 11,
            "TEXCOORD_0": 13
          },
          "indices": 14,
          "material": 2,
          "mode": 4
        }
      ]
    }
  ],
  "nodes": [
    {
      "children": [
        1
      ],
      "matrix": [
        1.0,
        0.0,
        0.0,
        0.0,
        0.0,
        2.220446049250313e-16,
        -1.0,
        0.0,
        0.0,
        1.0,
        2.220446049250313e-16,
        0.0,
        0.0,
        0.0,
        0.0,
        1.0
      ],
      "name": "Sketchfab_model"
    },
    {
      "children": [
        2,
        3,
        4,
        5
      ],
      "matrix": [
        1.0,
        0.0,
        0.0,
        0.0,
        0.0,
        1.0,
        0.0,
        0.0,
        0.0,
        0.0,
        1.0,
        0.0,
        -150.61737060546875,
        21.00450897216797,
        0.0009410000056959689,
        1.0
      ],
      "name": "buggy.obj.cleaner.gles"
    },
    {
      "mesh": 0,
      "name": "Object_2"
    },
    {
      "mesh": 1,
      "name": "Object_3"
    },
    {
      "mesh": 2,
      "name": "Object_4"
    },
    {
      "mesh": 3,
      "name": "Object_5"
    }
  ],
  "samplers": [
    {
      "magFilter": 9729,
      "minFilter": 9987,
      "wrapS": 10497,
      "wrapT": 10497
    }
  ],
  "scene": 0,
  "scenes": [
    {
      "name": "Sketchfab_Scene",
      "nodes": [
        0
      ]
    }
  ],
  "textures": [
    {
      "sampler": 0,
      "source": 0
    },
    {
      "sampler": 0,
      "source": 1
    }
  ]
}
