{"accessors":[{"bufferView":0,"byteOffset":0,"componentType":5126,"count":552,"max":[-2.36444,7.998713,1.935561],"min":[-4.145154,6.483735,-0.021481],"normalized":false,"type":"VEC3"},{"bufferView":1,"byteOffset":0,"componentType":5126,"count":552,"max":[0.999564,0.989115,0.742067,1],"min":[-0.992239,-0.998995,-0.738269,1],"normalized":false,"type":"VEC4"},{"bufferView":2,"byteOffset":0,"componentType":5126,"count":552,"max":[0.984738,0.996746,0.996746],"min":[-0.998388,-0.999113,-0.946602],"normalized":false,"type":"VEC3"},{"bufferView":3,"byteOffset":0,"componentType":5126,"count":552,"max":[0.989258,0.971191],"min":[0.011139,0.028702],"normalized":false,"type":"VEC2"},{"bufferView":4,"byteOffset":0,"componentType":5125,"count":2970,"max":[551],"min":[0],"normalized":false,"type":"SCALAR"},{"bufferView":5,"byteOffset":0,"componentType":5126,"count":552,"max":[-2.36444,7.998713,1.935561],"min":[-4.145154,6.483735,-0.021481],"normalized":false,"type":"VEC3"},{"bufferView":6,"byteOffset":0,"componentType":5126,"count":552,"max":[0.999564,0.989115,0.742067,1],"min":[-0.992239,-0.998995,-0.738269,1],"normalized":false,"type":"VEC4"},{"bufferView":7,"byteOffset":0,"componentType":5126,"count":552,"max":[0.984738,0.996746,0.996746],"min":[-0.998388,-0.999113,-0.946602],"normalized":false,"type":"VEC3"},{"bufferView":8,"byteOffset":0,"componentType":5126,"count":552,"max":[0.989258,0.971191],"min":[0.011139,0.028702],"normalized":false,"type":"VEC2"},{"bufferView":9,"byteOffset":0,"componentType":5125,"count":2970,"max":[551],"min":[0],"normalized":false,"type":"SCALAR"},{"bufferView":10,"byteOffset":0,"componentType":5126,"count":552,"max":[-2.36444,7.998713,1.935561],"min":[-4.145154,6.483735,-0.021481],"normalized":false,"type":"VEC3"},{"bufferView":11,"byteOffset":0,"componentType":5126,"count":552,"max":[0.999564,0.989115,0.742067,1],"min":[-0.992239,-0.998995,-0.738269,1],"normalized":false,"type":"VEC4"},{"bufferView":12,"byteOffset":0,"componentType":5126,"count":552,"max":[0.984738,0.996746,0.996746],"min":[-0.998388,-0.999113,-0.946602],"normalized":false,"type":"VEC3"},{"bufferView":13,"byteOffset":0,"componentType":5126,"count":552,"max":[0.989258,0.971191],"min":[0.011139,0.028702],"normalized":false,"type":"VEC2"},{"bufferView":14,"byteOffset":0,"componentType":5125,"count":2970,"max":[551],"min":[0],"normalized":false,"type":"SCALAR"}],"asset":{"generator":"Godot Engine v3.5.2.stable.flathub@170ba337a5d9e4c1e40d63b89dc1ba297b71860b","version":"2.0"},"bufferViews":[{"buffer":0,"byteLength":6624,"byteOffset":0},{"buffer":0,"byteLength":8832,"byteOffset":6624},{"buffer":0,"byteLength":6624,"byteOffset":15456},{"buffer":0,"byteLength":4416,"byteOffset":22080},{"buffer":0,"byteLength":11880,"byteOffset":26496},{"buffer":0,"byteLength":6624,"byteOffset":38376},{"buffer":0,"byteLength":8832,"byteOffset":45000},{"buffer":0,"byteLength":6624,"byteOffset":53832},{"buffer":0,"byteLength":4416,"byteOffset":60456},{"buffer":0,"byteLength":11880,"byteOffset":64872},{"buffer":0,"byteLength":6624,"byteOffset":76752},{"buffer":0,"byteLength":8832,"byteOffset":83376},{"buffer":0,"byteLength":6624,"byteOffset":92208},{"buffer":0,"byteLength":4416,"byteOffset":98832},{"buffer":0,"byteLength":11880,"byteOffset":103248}],"buffers":[{"byteLength":115128,"uri":"Rocks40.bin"}],"extensionsRequired":["KHR_texture_transform"],"extensionsUsed":["KHR_lights_punctual","KHR_texture_transform"],"images":[{"uri":"textures/_albedo.png"},{"uri":"textures/_normal.png"}],"materials":[{"normalTexture":{"index":1,"scale":1},"pbrMetallicRoughness":{"baseColorFactor":[1,1,1,1],"baseColorTexture":{"extensions":{"KHR_texture_transform":{"offset":[0,0],"scale":[1,1]}},"index":0},"metallicFactor":0,"roughnessFactor":1}}],"meshes":[{"extras":{"targetNames":[]},"primitives":[{"attributes":{"NORMAL":2,"POSITION":0,"TANGENT":1,"TEXCOORD_0":3},"indices":4,"material":0,"mode":4}]},{"extras":{"targetNames":[]},"primitives":[{"attributes":{"NORMAL":7,"POSITION":5,"TANGENT":6,"TEXCOORD_0":8},"indices":9,"material":0,"mode":4}]},{"extras":{"targetNames":[]},"primitives":[{"attributes":{"NORMAL":12,"POSITION":10,"TANGENT":11,"TEXCOORD_0":13},"indices":14,"material":0,"mode":4}]}],"nodes":[{"children":[1,3,5],"extensions":{},"name":"Rocks4","rotation":[0,-0.470126,0,0.882599]},{"children":[2],"extensions":{},"name":"Position3D","translation":[-0.37157,-0.213126,0.780723]},{"extensions":{},"mesh":0,"name":"rock01","translation":[3.72697,-7.2721,-0.832696]},{"children":[4],"extensions":{},"name":"Position3D2","rotation":[0.046954,0.36625,-0.015299,0.929205],"translation":[-0.339999,-0.216636,2.18555]},{"extensions":{},"mesh":1,"name":"rock012","translation":[3.357763,-7.230172,-0.431305]},{"children":[6],"extensions":{},"name":"Position3D3","rotation":[0.049732,0.33905,-0.01498,0.939333],"scale":[1.656005,1.550889,1.641869],"translation":[0.551389,-0.216636,1.74669]},{"extensions":{},"mesh":2,"name":"rock013","translation":[3.76694,-7.249791,-0.604832]}],"scene":0,"scenes":[{"nodes":[0]}],"textures":[{"source":0},{"source":1}]}